<mxfile host="app.diagrams.net" modified="2024-05-21T07:06:42.695Z" agent="Mozilla/5.0 (Windows NT 10.0; Win64; x64) AppleWebKit/537.36 (KHTML, like Gecko) Chrome/124.0.0.0 Safari/537.36" etag="54oxgU99QPCquXcLnByB" version="24.3.1" type="device">
  <diagram name="PÃ¡gina-1" id="rwzK4Zk_4rLO1upC7aYd">
    <mxGraphModel dx="1434" dy="780" grid="1" gridSize="10" guides="1" tooltips="1" connect="1" arrows="1" fold="1" page="1" pageScale="1" pageWidth="1169" pageHeight="827" math="0" shadow="0">
      <root>
        <mxCell id="0" />
        <mxCell id="1" parent="0" />
        <mxCell id="2" value="User" style="shape=umlLifeline;perimeter=lifelinePerimeter;whiteSpace=wrap;container=1;dropTarget=0;collapsible=0;recursiveResize=0;outlineConnect=0;portConstraint=eastwest;newEdgeStyle={&quot;edgeStyle&quot;:&quot;elbowEdgeStyle&quot;,&quot;elbow&quot;:&quot;vertical&quot;,&quot;curved&quot;:0,&quot;rounded&quot;:0};size=65;" parent="1" vertex="1">
          <mxGeometry width="150" height="1520" as="geometry" />
        </mxCell>
        <mxCell id="3" value="BARteca" style="shape=umlLifeline;perimeter=lifelinePerimeter;whiteSpace=wrap;container=1;dropTarget=0;collapsible=0;recursiveResize=0;outlineConnect=0;portConstraint=eastwest;newEdgeStyle={&quot;edgeStyle&quot;:&quot;elbowEdgeStyle&quot;,&quot;elbow&quot;:&quot;vertical&quot;,&quot;curved&quot;:0,&quot;rounded&quot;:0};size=65;" parent="1" vertex="1">
          <mxGeometry x="260" width="150" height="1520" as="geometry" />
        </mxCell>
        <mxCell id="4" value="API" style="shape=umlLifeline;perimeter=lifelinePerimeter;whiteSpace=wrap;container=1;dropTarget=0;collapsible=0;recursiveResize=0;outlineConnect=0;portConstraint=eastwest;newEdgeStyle={&quot;edgeStyle&quot;:&quot;elbowEdgeStyle&quot;,&quot;elbow&quot;:&quot;vertical&quot;,&quot;curved&quot;:0,&quot;rounded&quot;:0};size=65;" parent="1" vertex="1">
          <mxGeometry x="566" width="150" height="1520" as="geometry" />
        </mxCell>
        <mxCell id="5" value="alt" style="shape=umlFrame;dashed=1;pointerEvents=0;dropTarget=0;strokeColor=#B3B3B3;height=20;width=30" parent="1" vertex="1">
          <mxGeometry x="50" y="200" width="620" height="404" as="geometry" />
        </mxCell>
        <mxCell id="6" value="[Usuario no registrado]" style="text;strokeColor=none;fillColor=none;align=center;verticalAlign=middle;whiteSpace=wrap;" parent="5" vertex="1">
          <mxGeometry x="37.051792828685265" width="582.9482071713148" height="20" as="geometry" />
        </mxCell>
        <mxCell id="7" value="[User is registered]" style="shape=line;dashed=1;whiteSpace=wrap;verticalAlign=top;labelPosition=center;verticalLabelPosition=middle;align=center;strokeColor=#B3B3B3;" parent="5" vertex="1">
          <mxGeometry y="220" width="620" height="4" as="geometry" />
        </mxCell>
        <mxCell id="8" value="opt" style="shape=umlFrame;dashed=1;pointerEvents=0;dropTarget=0;strokeColor=#B3B3B3;height=20;width=30" parent="1" vertex="1">
          <mxGeometry x="64" y="620" width="596" height="850" as="geometry" />
        </mxCell>
        <mxCell id="9" value="[User logeado]" style="text;strokeColor=none;fillColor=none;align=center;verticalAlign=middle;whiteSpace=wrap;" parent="8" vertex="1">
          <mxGeometry x="35.61752988047809" width="560.3824701195219" height="36.79653679653679" as="geometry" />
        </mxCell>
        <mxCell id="11" value="Registro/Logeo" style="verticalAlign=bottom;endArrow=block;edgeStyle=elbowEdgeStyle;elbow=horizontal;curved=0;rounded=0;" parent="1" source="3" target="2" edge="1">
          <mxGeometry relative="1" as="geometry">
            <Array as="points">
              <mxPoint x="209" y="159" />
            </Array>
          </mxGeometry>
        </mxCell>
        <mxCell id="12" value="Register" style="verticalAlign=bottom;endArrow=block;edgeStyle=elbowEdgeStyle;elbow=vertical;curved=0;rounded=0;" parent="1" source="2" target="3" edge="1">
          <mxGeometry relative="1" as="geometry">
            <Array as="points">
              <mxPoint x="209" y="240" />
            </Array>
          </mxGeometry>
        </mxCell>
        <mxCell id="13" value="Comprobar registro" style="verticalAlign=bottom;endArrow=block;edgeStyle=elbowEdgeStyle;elbow=vertical;curved=0;rounded=0;" parent="1" source="3" target="4" edge="1">
          <mxGeometry relative="1" as="geometry">
            <Array as="points">
              <mxPoint x="453.5" y="300" />
            </Array>
            <mxPoint x="326" y="300" as="sourcePoint" />
            <mxPoint x="560" y="300" as="targetPoint" />
          </mxGeometry>
        </mxCell>
        <mxCell id="14" value="Registro successful" style="verticalAlign=bottom;endArrow=block;edgeStyle=elbowEdgeStyle;elbow=vertical;curved=0;rounded=0;dashed=1;dashPattern=2 3;" parent="1" source="4" target="3" edge="1">
          <mxGeometry relative="1" as="geometry">
            <Array as="points">
              <mxPoint x="450" y="330" />
            </Array>
            <mxPoint x="556.5" y="330" as="sourcePoint" />
            <mxPoint x="322.5" y="330" as="targetPoint" />
          </mxGeometry>
        </mxCell>
        <mxCell id="15" value="Login" style="verticalAlign=bottom;endArrow=block;edgeStyle=elbowEdgeStyle;elbow=vertical;curved=0;rounded=0;" parent="1" target="3" edge="1">
          <mxGeometry relative="1" as="geometry">
            <Array as="points">
              <mxPoint x="209" y="490" />
            </Array>
            <mxPoint x="74.5" y="490" as="sourcePoint" />
            <mxPoint x="322.5" y="490" as="targetPoint" />
          </mxGeometry>
        </mxCell>
        <mxCell id="16" value="Comprobar login" style="verticalAlign=bottom;endArrow=block;edgeStyle=elbowEdgeStyle;elbow=vertical;curved=0;rounded=0;" parent="1" source="3" target="4" edge="1">
          <mxGeometry relative="1" as="geometry">
            <Array as="points">
              <mxPoint x="450" y="511" />
            </Array>
          </mxGeometry>
        </mxCell>
        <mxCell id="17" value="Login successful" style="verticalAlign=bottom;endArrow=block;edgeStyle=elbowEdgeStyle;elbow=vertical;curved=0;rounded=0;dashed=1;dashPattern=2 3;" parent="1" source="4" target="3" edge="1">
          <mxGeometry relative="1" as="geometry">
            <Array as="points">
              <mxPoint x="450" y="563" />
            </Array>
          </mxGeometry>
        </mxCell>
        <mxCell id="18" value="Ver lista de bares" style="verticalAlign=bottom;endArrow=block;edgeStyle=elbowEdgeStyle;elbow=vertical;curved=0;rounded=0;" parent="1" target="3" edge="1">
          <mxGeometry relative="1" as="geometry">
            <Array as="points">
              <mxPoint x="209" y="661" />
            </Array>
            <mxPoint x="74.5" y="661" as="sourcePoint" />
            <mxPoint x="322.5" y="661" as="targetPoint" />
          </mxGeometry>
        </mxCell>
        <mxCell id="19" value="Pedir lista de bares" style="verticalAlign=bottom;endArrow=block;edgeStyle=elbowEdgeStyle;elbow=vertical;curved=0;rounded=0;" parent="1" source="3" target="4" edge="1">
          <mxGeometry relative="1" as="geometry">
            <Array as="points">
              <mxPoint x="450" y="713" />
            </Array>
            <mxPoint x="322.5" y="713" as="sourcePoint" />
            <mxPoint x="556.5" y="713" as="targetPoint" />
          </mxGeometry>
        </mxCell>
        <mxCell id="20" value="Devuelve lista de bares" style="verticalAlign=bottom;endArrow=block;edgeStyle=elbowEdgeStyle;elbow=vertical;curved=0;rounded=0;dashed=1;dashPattern=2 3;" parent="1" source="4" target="3" edge="1">
          <mxGeometry relative="1" as="geometry">
            <Array as="points">
              <mxPoint x="450" y="765" />
            </Array>
            <mxPoint x="556.5" y="765" as="sourcePoint" />
            <mxPoint x="322.5" y="765" as="targetPoint" />
          </mxGeometry>
        </mxCell>
        <mxCell id="21" value="Mostrar lista de vares" style="verticalAlign=bottom;endArrow=block;edgeStyle=elbowEdgeStyle;elbow=vertical;curved=0;rounded=0;dashed=1;dashPattern=2 3;" parent="1" source="3" edge="1">
          <mxGeometry relative="1" as="geometry">
            <Array as="points">
              <mxPoint x="209" y="817" />
            </Array>
            <mxPoint x="322.5" y="817" as="sourcePoint" />
            <mxPoint x="74.5" y="817" as="targetPoint" />
          </mxGeometry>
        </mxCell>
        <mxCell id="22" value="Ver lista de reservas" style="verticalAlign=bottom;endArrow=block;edgeStyle=elbowEdgeStyle;elbow=vertical;curved=0;rounded=0;" parent="1" target="3" edge="1">
          <mxGeometry relative="1" as="geometry">
            <Array as="points">
              <mxPoint x="209" y="869" />
            </Array>
            <mxPoint x="74.5" y="869" as="sourcePoint" />
            <mxPoint x="322.5" y="869" as="targetPoint" />
          </mxGeometry>
        </mxCell>
        <mxCell id="23" value="Pedir lista de reservas" style="verticalAlign=bottom;endArrow=block;edgeStyle=elbowEdgeStyle;elbow=vertical;curved=0;rounded=0;" parent="1" source="3" target="4" edge="1">
          <mxGeometry relative="1" as="geometry">
            <Array as="points">
              <mxPoint x="450" y="921" />
            </Array>
            <mxPoint x="322.5" y="921" as="sourcePoint" />
            <mxPoint x="556.5" y="921" as="targetPoint" />
          </mxGeometry>
        </mxCell>
        <mxCell id="24" value="Devuelve lista de reservas" style="verticalAlign=bottom;endArrow=block;edgeStyle=elbowEdgeStyle;elbow=vertical;curved=0;rounded=0;dashed=1;dashPattern=2 3;" parent="1" source="4" target="3" edge="1">
          <mxGeometry relative="1" as="geometry">
            <Array as="points">
              <mxPoint x="450" y="973" />
            </Array>
            <mxPoint x="556.5" y="973" as="sourcePoint" />
            <mxPoint x="322.5" y="973" as="targetPoint" />
          </mxGeometry>
        </mxCell>
        <mxCell id="25" value="Mostrar lista de reservas" style="verticalAlign=bottom;endArrow=block;edgeStyle=elbowEdgeStyle;elbow=vertical;curved=0;rounded=0;dashed=1;dashPattern=2 3;" parent="1" source="3" edge="1">
          <mxGeometry relative="1" as="geometry">
            <Array as="points">
              <mxPoint x="209" y="1025" />
            </Array>
            <mxPoint x="322.5" y="1025" as="sourcePoint" />
            <mxPoint x="74.5" y="1025" as="targetPoint" />
          </mxGeometry>
        </mxCell>
        <mxCell id="qBHR2o95Cr0Uf-2VlcTb-26" value="alt" style="shape=umlFrame;dashed=1;pointerEvents=0;dropTarget=0;strokeColor=#B3B3B3;height=20;width=30" parent="1" vertex="1">
          <mxGeometry x="70" y="260" width="580" height="150" as="geometry" />
        </mxCell>
        <mxCell id="qBHR2o95Cr0Uf-2VlcTb-27" value="[Registro exitoso]" style="text;strokeColor=none;fillColor=none;align=center;verticalAlign=middle;whiteSpace=wrap;" parent="qBHR2o95Cr0Uf-2VlcTb-26" vertex="1">
          <mxGeometry x="34.6613545816733" width="545.3386454183266" height="7.425742574257424" as="geometry" />
        </mxCell>
        <mxCell id="qBHR2o95Cr0Uf-2VlcTb-28" value="[Registro fallido]" style="shape=line;dashed=1;whiteSpace=wrap;verticalAlign=top;labelPosition=center;verticalLabelPosition=middle;align=center;strokeColor=#B3B3B3;" parent="qBHR2o95Cr0Uf-2VlcTb-26" vertex="1">
          <mxGeometry y="81.68316831683167" width="579.9999999999999" height="1.485148514851485" as="geometry" />
        </mxCell>
        <mxCell id="qBHR2o95Cr0Uf-2VlcTb-29" value="Error registro" style="verticalAlign=bottom;endArrow=block;edgeStyle=elbowEdgeStyle;elbow=vertical;curved=0;rounded=0;dashed=1;dashPattern=2 3;" parent="1" source="4" target="3" edge="1">
          <mxGeometry relative="1" as="geometry">
            <Array as="points">
              <mxPoint x="447.5" y="390" />
            </Array>
            <mxPoint x="554" y="390" as="sourcePoint" />
            <mxPoint x="320" y="390" as="targetPoint" />
          </mxGeometry>
        </mxCell>
        <mxCell id="qBHR2o95Cr0Uf-2VlcTb-30" value="AÃ±adir bar" style="verticalAlign=bottom;endArrow=block;edgeStyle=elbowEdgeStyle;elbow=horizontal;curved=0;rounded=0;" parent="1" source="2" target="3" edge="1">
          <mxGeometry relative="1" as="geometry">
            <Array as="points">
              <mxPoint x="204.5" y="1130" />
            </Array>
            <mxPoint x="70" y="1130" as="sourcePoint" />
            <mxPoint x="318" y="1130" as="targetPoint" />
            <mxPoint as="offset" />
          </mxGeometry>
        </mxCell>
        <mxCell id="qBHR2o95Cr0Uf-2VlcTb-31" value="AÃ±adir bar" style="verticalAlign=bottom;endArrow=block;edgeStyle=elbowEdgeStyle;elbow=vertical;curved=0;rounded=0;" parent="1" source="3" target="4" edge="1">
          <mxGeometry relative="1" as="geometry">
            <Array as="points">
              <mxPoint x="452.5" y="1160" />
            </Array>
            <mxPoint x="318" y="1160" as="sourcePoint" />
            <mxPoint x="566" y="1160" as="targetPoint" />
          </mxGeometry>
        </mxCell>
        <mxCell id="qBHR2o95Cr0Uf-2VlcTb-32" value="Borrar bar" style="verticalAlign=bottom;endArrow=block;edgeStyle=elbowEdgeStyle;elbow=horizontal;curved=0;rounded=0;" parent="1" source="2" target="3" edge="1">
          <mxGeometry relative="1" as="geometry">
            <Array as="points">
              <mxPoint x="214.5" y="1250" />
            </Array>
            <mxPoint x="80" y="1250" as="sourcePoint" />
            <mxPoint x="328" y="1250" as="targetPoint" />
          </mxGeometry>
        </mxCell>
        <mxCell id="qBHR2o95Cr0Uf-2VlcTb-33" value="Borrar bar" style="verticalAlign=bottom;endArrow=block;edgeStyle=elbowEdgeStyle;elbow=vertical;curved=0;rounded=0;" parent="1" source="3" target="4" edge="1">
          <mxGeometry relative="1" as="geometry">
            <Array as="points">
              <mxPoint x="452.5" y="1290" />
            </Array>
            <mxPoint x="318" y="1290" as="sourcePoint" />
            <mxPoint x="566" y="1290" as="targetPoint" />
          </mxGeometry>
        </mxCell>
        <mxCell id="qBHR2o95Cr0Uf-2VlcTb-34" value="Hacer reserva" style="verticalAlign=bottom;endArrow=block;edgeStyle=elbowEdgeStyle;elbow=horizontal;curved=0;rounded=0;" parent="1" target="3" edge="1">
          <mxGeometry relative="1" as="geometry">
            <Array as="points">
              <mxPoint x="204.5" y="1370" />
            </Array>
            <mxPoint x="74.5" y="1370" as="sourcePoint" />
            <mxPoint x="322.5" y="1370" as="targetPoint" />
          </mxGeometry>
        </mxCell>
        <mxCell id="qBHR2o95Cr0Uf-2VlcTb-35" value="AÃ±adir reserva" style="verticalAlign=bottom;endArrow=block;edgeStyle=elbowEdgeStyle;elbow=vertical;curved=0;rounded=0;" parent="1" source="3" target="4" edge="1">
          <mxGeometry relative="1" as="geometry">
            <Array as="points">
              <mxPoint x="446.5" y="1400" />
            </Array>
            <mxPoint x="312" y="1400" as="sourcePoint" />
            <mxPoint x="560" y="1400" as="targetPoint" />
          </mxGeometry>
        </mxCell>
        <mxCell id="o3OVM2CxOp8buC_yMI5R-62" value="Comprobar registro" style="verticalAlign=bottom;endArrow=block;edgeStyle=elbowEdgeStyle;elbow=vertical;curved=0;rounded=0;" edge="1" parent="1" source="o3OVM2CxOp8buC_yMI5R-68" target="o3OVM2CxOp8buC_yMI5R-70">
          <mxGeometry relative="1" as="geometry">
            <Array as="points">
              <mxPoint x="1649" y="230" />
            </Array>
            <mxPoint x="1530" y="230" as="sourcePoint" />
            <mxPoint x="1836" y="230" as="targetPoint" />
          </mxGeometry>
        </mxCell>
        <mxCell id="o3OVM2CxOp8buC_yMI5R-63" value="Registro successful" style="verticalAlign=bottom;endArrow=block;edgeStyle=elbowEdgeStyle;elbow=vertical;curved=0;rounded=0;dashed=1;dashPattern=2 3;" edge="1" parent="1">
          <mxGeometry relative="1" as="geometry">
            <Array as="points">
              <mxPoint x="1945.5" y="290" />
            </Array>
            <mxPoint x="2114.5" y="290" as="sourcePoint" />
            <mxPoint x="1834.5" y="290" as="targetPoint" />
          </mxGeometry>
        </mxCell>
        <mxCell id="o3OVM2CxOp8buC_yMI5R-64" value="alt" style="shape=umlFrame;dashed=1;pointerEvents=0;dropTarget=0;strokeColor=#B3B3B3;height=20;width=30" vertex="1" parent="1">
          <mxGeometry x="1250" y="270" width="1200" height="200" as="geometry" />
        </mxCell>
        <mxCell id="o3OVM2CxOp8buC_yMI5R-65" value="[Registro exitoso]Â Â Â Â " style="text;strokeColor=none;fillColor=none;align=center;verticalAlign=middle;whiteSpace=wrap;" vertex="1" parent="o3OVM2CxOp8buC_yMI5R-64">
          <mxGeometry x="-120" width="1320" height="9.9" as="geometry" />
        </mxCell>
        <mxCell id="o3OVM2CxOp8buC_yMI5R-66" value="[Registro fallido]Â Â Â Â Â Â Â Â Â Â Â Â Â Â Â Â Â Â Â Â Â Â Â Â Â Â Â Â Â Â Â Â Â Â Â Â Â Â Â Â " style="shape=line;dashed=1;whiteSpace=wrap;verticalAlign=top;labelPosition=center;verticalLabelPosition=middle;align=center;strokeColor=#B3B3B3;" vertex="1" parent="o3OVM2CxOp8buC_yMI5R-64">
          <mxGeometry x="10" y="108.91" width="1190" height="1.98" as="geometry" />
        </mxCell>
        <mxCell id="o3OVM2CxOp8buC_yMI5R-67" value="Invi&lt;span style=&quot;background-color: initial;&quot;&gt;tado&lt;/span&gt;" style="rounded=0;whiteSpace=wrap;html=1;" vertex="1" parent="1">
          <mxGeometry x="1200" y="100" width="120" height="60" as="geometry" />
        </mxCell>
        <mxCell id="o3OVM2CxOp8buC_yMI5R-68" value="BARteca" style="shape=umlLifeline;perimeter=lifelinePerimeter;whiteSpace=wrap;container=1;dropTarget=0;collapsible=0;recursiveResize=0;outlineConnect=0;portConstraint=eastwest;newEdgeStyle={&quot;edgeStyle&quot;:&quot;elbowEdgeStyle&quot;,&quot;elbow&quot;:&quot;vertical&quot;,&quot;curved&quot;:0,&quot;rounded&quot;:0};size=65;" vertex="1" parent="1">
          <mxGeometry x="1450" y="100" width="150" height="420" as="geometry" />
        </mxCell>
        <mxCell id="o3OVM2CxOp8buC_yMI5R-69" value="" style="endArrow=none;dashed=1;html=1;rounded=0;" edge="1" parent="1" target="o3OVM2CxOp8buC_yMI5R-67">
          <mxGeometry width="50" height="50" relative="1" as="geometry">
            <mxPoint x="1260" y="530" as="sourcePoint" />
            <mxPoint x="1130" y="190" as="targetPoint" />
          </mxGeometry>
        </mxCell>
        <mxCell id="o3OVM2CxOp8buC_yMI5R-70" value="API" style="shape=umlLifeline;perimeter=lifelinePerimeter;whiteSpace=wrap;container=1;dropTarget=0;collapsible=0;recursiveResize=0;outlineConnect=0;portConstraint=eastwest;newEdgeStyle={&quot;edgeStyle&quot;:&quot;elbowEdgeStyle&quot;,&quot;elbow&quot;:&quot;vertical&quot;,&quot;curved&quot;:0,&quot;rounded&quot;:0};size=65;" vertex="1" parent="1">
          <mxGeometry x="1760" y="100" width="150" height="420" as="geometry" />
        </mxCell>
        <mxCell id="o3OVM2CxOp8buC_yMI5R-71" value="BBDD" style="shape=umlLifeline;perimeter=lifelinePerimeter;whiteSpace=wrap;container=1;dropTarget=0;collapsible=0;recursiveResize=0;outlineConnect=0;portConstraint=eastwest;newEdgeStyle={&quot;edgeStyle&quot;:&quot;elbowEdgeStyle&quot;,&quot;elbow&quot;:&quot;vertical&quot;,&quot;curved&quot;:0,&quot;rounded&quot;:0};size=65;" vertex="1" parent="1">
          <mxGeometry x="2040" y="100" width="150" height="420" as="geometry" />
        </mxCell>
        <mxCell id="o3OVM2CxOp8buC_yMI5R-72" value="Register" style="verticalAlign=bottom;endArrow=block;edgeStyle=elbowEdgeStyle;elbow=vertical;curved=0;rounded=0;" edge="1" parent="1" target="o3OVM2CxOp8buC_yMI5R-68">
          <mxGeometry relative="1" as="geometry">
            <Array as="points">
              <mxPoint x="1394" y="210" />
            </Array>
            <mxPoint x="1260" y="210" as="sourcePoint" />
            <mxPoint x="1520" y="210" as="targetPoint" />
          </mxGeometry>
        </mxCell>
        <mxCell id="o3OVM2CxOp8buC_yMI5R-73" value="Comprobar registro" style="verticalAlign=bottom;endArrow=block;edgeStyle=elbowEdgeStyle;elbow=vertical;curved=0;rounded=0;" edge="1" parent="1" source="o3OVM2CxOp8buC_yMI5R-70" target="o3OVM2CxOp8buC_yMI5R-71">
          <mxGeometry relative="1" as="geometry">
            <Array as="points">
              <mxPoint x="1944" y="250" />
            </Array>
            <mxPoint x="1820" y="250" as="sourcePoint" />
            <mxPoint x="2130" y="250" as="targetPoint" />
          </mxGeometry>
        </mxCell>
        <mxCell id="o3OVM2CxOp8buC_yMI5R-74" value="Registro successful" style="verticalAlign=bottom;endArrow=block;edgeStyle=elbowEdgeStyle;elbow=vertical;curved=0;rounded=0;dashed=1;dashPattern=2 3;" edge="1" parent="1" source="o3OVM2CxOp8buC_yMI5R-70" target="o3OVM2CxOp8buC_yMI5R-68">
          <mxGeometry relative="1" as="geometry">
            <Array as="points">
              <mxPoint x="1641" y="309.5" />
            </Array>
            <mxPoint x="1810" y="309.5" as="sourcePoint" />
            <mxPoint x="1530" y="309.5" as="targetPoint" />
          </mxGeometry>
        </mxCell>
        <mxCell id="o3OVM2CxOp8buC_yMI5R-75" value="Error registro" style="verticalAlign=bottom;endArrow=block;edgeStyle=elbowEdgeStyle;elbow=vertical;curved=0;rounded=0;dashed=1;dashPattern=2 3;" edge="1" parent="1">
          <mxGeometry relative="1" as="geometry">
            <Array as="points">
              <mxPoint x="1942.5" y="410" />
            </Array>
            <mxPoint x="2114.5" y="410" as="sourcePoint" />
            <mxPoint x="1834.5" y="410" as="targetPoint" />
          </mxGeometry>
        </mxCell>
        <mxCell id="o3OVM2CxOp8buC_yMI5R-76" value="Error registro" style="verticalAlign=bottom;endArrow=block;edgeStyle=elbowEdgeStyle;elbow=vertical;curved=0;rounded=0;dashed=1;dashPattern=2 3;" edge="1" parent="1" source="o3OVM2CxOp8buC_yMI5R-70" target="o3OVM2CxOp8buC_yMI5R-68">
          <mxGeometry relative="1" as="geometry">
            <Array as="points">
              <mxPoint x="1642.5" y="430" />
            </Array>
            <mxPoint x="1836" y="430" as="sourcePoint" />
            <mxPoint x="1530" y="430" as="targetPoint" />
          </mxGeometry>
        </mxCell>
        <mxCell id="o3OVM2CxOp8buC_yMI5R-79" value="New Instance" style="verticalAlign=bottom;endArrow=none;edgeStyle=elbowEdgeStyle;elbow=vertical;curved=0;rounded=0;dashed=1;dashPattern=2 3;startArrow=block;startFill=1;endFill=0;" edge="1" parent="1" source="o3OVM2CxOp8buC_yMI5R-80" target="o3OVM2CxOp8buC_yMI5R-71">
          <mxGeometry relative="1" as="geometry">
            <Array as="points">
              <mxPoint x="2211" y="330" />
            </Array>
            <mxPoint x="2370" y="330" as="sourcePoint" />
            <mxPoint x="2100" y="330" as="targetPoint" />
          </mxGeometry>
        </mxCell>
        <mxCell id="o3OVM2CxOp8buC_yMI5R-80" value="Usuario" style="shape=umlLifeline;perimeter=lifelinePerimeter;whiteSpace=wrap;container=1;dropTarget=0;collapsible=0;recursiveResize=0;outlineConnect=0;portConstraint=eastwest;newEdgeStyle={&quot;edgeStyle&quot;:&quot;elbowEdgeStyle&quot;,&quot;elbow&quot;:&quot;vertical&quot;,&quot;curved&quot;:0,&quot;rounded&quot;:0};size=65;" vertex="1" parent="1">
          <mxGeometry x="2310" y="100" width="150" height="420" as="geometry" />
        </mxCell>
        <mxCell id="o3OVM2CxOp8buC_yMI5R-81" value="&lt;h1&gt;&lt;i&gt;&lt;u&gt;DIAGRAMA REGISTRO&lt;/u&gt;&lt;/i&gt;&lt;/h1&gt;" style="text;align=center;fontStyle=1;verticalAlign=middle;spacingLeft=3;spacingRight=3;strokeColor=none;rotatable=0;points=[[0,0.5],[1,0.5]];portConstraint=eastwest;html=1;" vertex="1" parent="1">
          <mxGeometry x="1250" y="30" width="160" height="26" as="geometry" />
        </mxCell>
        <mxCell id="o3OVM2CxOp8buC_yMI5R-85" value="BARteca" style="shape=umlLifeline;perimeter=lifelinePerimeter;whiteSpace=wrap;container=1;dropTarget=0;collapsible=0;recursiveResize=0;outlineConnect=0;portConstraint=eastwest;newEdgeStyle={&quot;edgeStyle&quot;:&quot;elbowEdgeStyle&quot;,&quot;elbow&quot;:&quot;vertical&quot;,&quot;curved&quot;:0,&quot;rounded&quot;:0};size=65;" vertex="1" parent="1">
          <mxGeometry x="1450" y="650" width="150" height="420" as="geometry" />
        </mxCell>
        <mxCell id="o3OVM2CxOp8buC_yMI5R-87" value="API" style="shape=umlLifeline;perimeter=lifelinePerimeter;whiteSpace=wrap;container=1;dropTarget=0;collapsible=0;recursiveResize=0;outlineConnect=0;portConstraint=eastwest;newEdgeStyle={&quot;edgeStyle&quot;:&quot;elbowEdgeStyle&quot;,&quot;elbow&quot;:&quot;vertical&quot;,&quot;curved&quot;:0,&quot;rounded&quot;:0};size=65;" vertex="1" parent="1">
          <mxGeometry x="1760" y="650" width="150" height="420" as="geometry" />
        </mxCell>
        <mxCell id="o3OVM2CxOp8buC_yMI5R-88" value="BBDD" style="shape=umlLifeline;perimeter=lifelinePerimeter;whiteSpace=wrap;container=1;dropTarget=0;collapsible=0;recursiveResize=0;outlineConnect=0;portConstraint=eastwest;newEdgeStyle={&quot;edgeStyle&quot;:&quot;elbowEdgeStyle&quot;,&quot;elbow&quot;:&quot;vertical&quot;,&quot;curved&quot;:0,&quot;rounded&quot;:0};size=65;" vertex="1" parent="1">
          <mxGeometry x="2040" y="650" width="150" height="420" as="geometry" />
        </mxCell>
        <mxCell id="o3OVM2CxOp8buC_yMI5R-94" value="&lt;h1&gt;&lt;i&gt;&lt;u&gt;DIAGRAMA LOGEO&lt;/u&gt;&lt;/i&gt;&lt;/h1&gt;" style="text;align=center;fontStyle=1;verticalAlign=middle;spacingLeft=3;spacingRight=3;strokeColor=none;rotatable=0;points=[[0,0.5],[1,0.5]];portConstraint=eastwest;html=1;" vertex="1" parent="1">
          <mxGeometry x="1230" y="578" width="160" height="26" as="geometry" />
        </mxCell>
        <mxCell id="o3OVM2CxOp8buC_yMI5R-95" value="Login" style="verticalAlign=bottom;endArrow=block;edgeStyle=elbowEdgeStyle;elbow=vertical;curved=0;rounded=0;" edge="1" parent="1" source="o3OVM2CxOp8buC_yMI5R-104" target="o3OVM2CxOp8buC_yMI5R-85">
          <mxGeometry relative="1" as="geometry">
            <Array as="points">
              <mxPoint x="1404.5" y="750" />
            </Array>
            <mxPoint x="1270" y="750" as="sourcePoint" />
            <mxPoint x="1530.5" y="750" as="targetPoint" />
          </mxGeometry>
        </mxCell>
        <mxCell id="o3OVM2CxOp8buC_yMI5R-96" value="Comprobar login" style="verticalAlign=bottom;endArrow=block;edgeStyle=elbowEdgeStyle;elbow=vertical;curved=0;rounded=0;" edge="1" parent="1" source="o3OVM2CxOp8buC_yMI5R-85" target="o3OVM2CxOp8buC_yMI5R-87">
          <mxGeometry relative="1" as="geometry">
            <Array as="points">
              <mxPoint x="1645" y="770" />
            </Array>
            <mxPoint x="1530" y="770" as="sourcePoint" />
            <mxPoint x="1836" y="770" as="targetPoint" />
          </mxGeometry>
        </mxCell>
        <mxCell id="o3OVM2CxOp8buC_yMI5R-97" value="Login successful" style="verticalAlign=bottom;endArrow=block;edgeStyle=elbowEdgeStyle;elbow=vertical;curved=0;rounded=0;dashed=1;dashPattern=2 3;" edge="1" parent="1" source="o3OVM2CxOp8buC_yMI5R-88" target="o3OVM2CxOp8buC_yMI5R-87">
          <mxGeometry relative="1" as="geometry">
            <Array as="points">
              <mxPoint x="1935" y="990" />
            </Array>
            <mxPoint x="2126" y="990" as="sourcePoint" />
            <mxPoint x="1820" y="990" as="targetPoint" />
          </mxGeometry>
        </mxCell>
        <mxCell id="o3OVM2CxOp8buC_yMI5R-101" value="alt" style="shape=umlFrame;dashed=1;pointerEvents=0;dropTarget=0;strokeColor=#B3B3B3;height=20;width=30" vertex="1" parent="1">
          <mxGeometry x="1215" y="810" width="985" height="240" as="geometry" />
        </mxCell>
        <mxCell id="o3OVM2CxOp8buC_yMI5R-102" value="[Usuario no registrado]" style="text;strokeColor=none;fillColor=none;align=center;verticalAlign=middle;whiteSpace=wrap;" vertex="1" parent="o3OVM2CxOp8buC_yMI5R-101">
          <mxGeometry x="58.86454183266933" width="926.1354581673307" height="11.88118811881188" as="geometry" />
        </mxCell>
        <mxCell id="o3OVM2CxOp8buC_yMI5R-103" value="[User is registered]" style="shape=line;dashed=1;whiteSpace=wrap;verticalAlign=top;labelPosition=center;verticalLabelPosition=middle;align=center;strokeColor=#B3B3B3;" vertex="1" parent="o3OVM2CxOp8buC_yMI5R-101">
          <mxGeometry y="130.69306930693068" width="985" height="2.3762376237623757" as="geometry" />
        </mxCell>
        <mxCell id="o3OVM2CxOp8buC_yMI5R-104" value="Usuario" style="shape=umlLifeline;perimeter=lifelinePerimeter;whiteSpace=wrap;container=1;dropTarget=0;collapsible=0;recursiveResize=0;outlineConnect=0;portConstraint=eastwest;newEdgeStyle={&quot;edgeStyle&quot;:&quot;elbowEdgeStyle&quot;,&quot;elbow&quot;:&quot;vertical&quot;,&quot;curved&quot;:0,&quot;rounded&quot;:0};size=65;" vertex="1" parent="1">
          <mxGeometry x="1200" y="650" width="150" height="420" as="geometry" />
        </mxCell>
        <mxCell id="o3OVM2CxOp8buC_yMI5R-105" value="Comprobar login" style="verticalAlign=bottom;endArrow=block;edgeStyle=elbowEdgeStyle;elbow=vertical;curved=0;rounded=0;" edge="1" parent="1" source="o3OVM2CxOp8buC_yMI5R-87" target="o3OVM2CxOp8buC_yMI5R-88">
          <mxGeometry relative="1" as="geometry">
            <Array as="points">
              <mxPoint x="1960" y="790" />
            </Array>
            <mxPoint x="1840" y="790" as="sourcePoint" />
            <mxPoint x="2150" y="790" as="targetPoint" />
          </mxGeometry>
        </mxCell>
        <mxCell id="o3OVM2CxOp8buC_yMI5R-106" value="Login Error" style="verticalAlign=bottom;endArrow=block;edgeStyle=elbowEdgeStyle;elbow=vertical;curved=0;rounded=0;dashed=1;dashPattern=2 3;exitX=0.467;exitY=0.5;exitDx=0;exitDy=0;exitPerimeter=0;" edge="1" parent="1" source="o3OVM2CxOp8buC_yMI5R-88" target="o3OVM2CxOp8buC_yMI5R-87">
          <mxGeometry relative="1" as="geometry">
            <Array as="points">
              <mxPoint x="1955" y="860" />
            </Array>
            <mxPoint x="2146" y="860" as="sourcePoint" />
            <mxPoint x="1840" y="860" as="targetPoint" />
          </mxGeometry>
        </mxCell>
        <mxCell id="o3OVM2CxOp8buC_yMI5R-107" value="Login successful" style="verticalAlign=bottom;endArrow=block;edgeStyle=elbowEdgeStyle;elbow=vertical;curved=0;rounded=0;dashed=1;dashPattern=2 3;" edge="1" parent="1" source="o3OVM2CxOp8buC_yMI5R-87" target="o3OVM2CxOp8buC_yMI5R-85">
          <mxGeometry relative="1" as="geometry">
            <Array as="points">
              <mxPoint x="1645" y="1020" />
            </Array>
            <mxPoint x="1834.5" y="1020" as="sourcePoint" />
            <mxPoint x="1524.5" y="1020" as="targetPoint" />
          </mxGeometry>
        </mxCell>
        <mxCell id="o3OVM2CxOp8buC_yMI5R-108" value="Login Error" style="verticalAlign=bottom;endArrow=block;edgeStyle=elbowEdgeStyle;elbow=vertical;curved=0;rounded=0;dashed=1;dashPattern=2 3;" edge="1" parent="1" source="o3OVM2CxOp8buC_yMI5R-87" target="o3OVM2CxOp8buC_yMI5R-85">
          <mxGeometry relative="1" as="geometry">
            <Array as="points">
              <mxPoint x="1670" y="880" />
            </Array>
            <mxPoint x="1825" y="880" as="sourcePoint" />
            <mxPoint x="1550" y="880" as="targetPoint" />
          </mxGeometry>
        </mxCell>
        <mxCell id="o3OVM2CxOp8buC_yMI5R-109" value="BARteca" style="shape=umlLifeline;perimeter=lifelinePerimeter;whiteSpace=wrap;container=1;dropTarget=0;collapsible=0;recursiveResize=0;outlineConnect=0;portConstraint=eastwest;newEdgeStyle={&quot;edgeStyle&quot;:&quot;elbowEdgeStyle&quot;,&quot;elbow&quot;:&quot;vertical&quot;,&quot;curved&quot;:0,&quot;rounded&quot;:0};size=65;" vertex="1" parent="1">
          <mxGeometry x="1450" y="1120" width="150" height="420" as="geometry" />
        </mxCell>
        <mxCell id="o3OVM2CxOp8buC_yMI5R-110" value="API" style="shape=umlLifeline;perimeter=lifelinePerimeter;whiteSpace=wrap;container=1;dropTarget=0;collapsible=0;recursiveResize=0;outlineConnect=0;portConstraint=eastwest;newEdgeStyle={&quot;edgeStyle&quot;:&quot;elbowEdgeStyle&quot;,&quot;elbow&quot;:&quot;vertical&quot;,&quot;curved&quot;:0,&quot;rounded&quot;:0};size=65;" vertex="1" parent="1">
          <mxGeometry x="1760" y="1120" width="150" height="420" as="geometry" />
        </mxCell>
        <mxCell id="o3OVM2CxOp8buC_yMI5R-111" value="BBDD" style="shape=umlLifeline;perimeter=lifelinePerimeter;whiteSpace=wrap;container=1;dropTarget=0;collapsible=0;recursiveResize=0;outlineConnect=0;portConstraint=eastwest;newEdgeStyle={&quot;edgeStyle&quot;:&quot;elbowEdgeStyle&quot;,&quot;elbow&quot;:&quot;vertical&quot;,&quot;curved&quot;:0,&quot;rounded&quot;:0};size=65;" vertex="1" parent="1">
          <mxGeometry x="2040" y="1120" width="150" height="420" as="geometry" />
        </mxCell>
        <mxCell id="o3OVM2CxOp8buC_yMI5R-112" value="Login" style="verticalAlign=bottom;endArrow=block;edgeStyle=elbowEdgeStyle;elbow=vertical;curved=0;rounded=0;" edge="1" parent="1" source="o3OVM2CxOp8buC_yMI5R-118" target="o3OVM2CxOp8buC_yMI5R-109">
          <mxGeometry relative="1" as="geometry">
            <Array as="points">
              <mxPoint x="1404.5" y="1220" />
            </Array>
            <mxPoint x="1270" y="1220" as="sourcePoint" />
            <mxPoint x="1530.5" y="1220" as="targetPoint" />
          </mxGeometry>
        </mxCell>
        <mxCell id="o3OVM2CxOp8buC_yMI5R-113" value="Comprobar login" style="verticalAlign=bottom;endArrow=block;edgeStyle=elbowEdgeStyle;elbow=vertical;curved=0;rounded=0;" edge="1" parent="1" source="o3OVM2CxOp8buC_yMI5R-109" target="o3OVM2CxOp8buC_yMI5R-110">
          <mxGeometry relative="1" as="geometry">
            <Array as="points">
              <mxPoint x="1645" y="1240" />
            </Array>
            <mxPoint x="1530" y="1240" as="sourcePoint" />
            <mxPoint x="1836" y="1240" as="targetPoint" />
          </mxGeometry>
        </mxCell>
        <mxCell id="o3OVM2CxOp8buC_yMI5R-114" value="Login successful" style="verticalAlign=bottom;endArrow=block;edgeStyle=elbowEdgeStyle;elbow=vertical;curved=0;rounded=0;dashed=1;dashPattern=2 3;" edge="1" parent="1" source="o3OVM2CxOp8buC_yMI5R-111" target="o3OVM2CxOp8buC_yMI5R-110">
          <mxGeometry relative="1" as="geometry">
            <Array as="points">
              <mxPoint x="1935" y="1460" />
            </Array>
            <mxPoint x="2126" y="1460" as="sourcePoint" />
            <mxPoint x="1820" y="1460" as="targetPoint" />
          </mxGeometry>
        </mxCell>
        <mxCell id="o3OVM2CxOp8buC_yMI5R-115" value="alt" style="shape=umlFrame;dashed=1;pointerEvents=0;dropTarget=0;strokeColor=#B3B3B3;height=20;width=30" vertex="1" parent="1">
          <mxGeometry x="1215" y="1280" width="985" height="240" as="geometry" />
        </mxCell>
        <mxCell id="o3OVM2CxOp8buC_yMI5R-116" value="[Usuario no registrado]" style="text;strokeColor=none;fillColor=none;align=center;verticalAlign=middle;whiteSpace=wrap;" vertex="1" parent="o3OVM2CxOp8buC_yMI5R-115">
          <mxGeometry x="58.86454183266933" width="926.1354581673307" height="11.88118811881188" as="geometry" />
        </mxCell>
        <mxCell id="o3OVM2CxOp8buC_yMI5R-117" value="[User is registered]" style="shape=line;dashed=1;whiteSpace=wrap;verticalAlign=top;labelPosition=center;verticalLabelPosition=middle;align=center;strokeColor=#B3B3B3;" vertex="1" parent="o3OVM2CxOp8buC_yMI5R-115">
          <mxGeometry y="130.69306930693068" width="985" height="2.3762376237623757" as="geometry" />
        </mxCell>
        <mxCell id="o3OVM2CxOp8buC_yMI5R-118" value="Usuario" style="shape=umlLifeline;perimeter=lifelinePerimeter;whiteSpace=wrap;container=1;dropTarget=0;collapsible=0;recursiveResize=0;outlineConnect=0;portConstraint=eastwest;newEdgeStyle={&quot;edgeStyle&quot;:&quot;elbowEdgeStyle&quot;,&quot;elbow&quot;:&quot;vertical&quot;,&quot;curved&quot;:0,&quot;rounded&quot;:0};size=65;" vertex="1" parent="1">
          <mxGeometry x="1200" y="1120" width="150" height="420" as="geometry" />
        </mxCell>
        <mxCell id="o3OVM2CxOp8buC_yMI5R-119" value="Comprobar login" style="verticalAlign=bottom;endArrow=block;edgeStyle=elbowEdgeStyle;elbow=vertical;curved=0;rounded=0;" edge="1" parent="1" source="o3OVM2CxOp8buC_yMI5R-110" target="o3OVM2CxOp8buC_yMI5R-111">
          <mxGeometry relative="1" as="geometry">
            <Array as="points">
              <mxPoint x="1960" y="1260" />
            </Array>
            <mxPoint x="1840" y="1260" as="sourcePoint" />
            <mxPoint x="2150" y="1260" as="targetPoint" />
          </mxGeometry>
        </mxCell>
        <mxCell id="o3OVM2CxOp8buC_yMI5R-120" value="Login Error" style="verticalAlign=bottom;endArrow=block;edgeStyle=elbowEdgeStyle;elbow=vertical;curved=0;rounded=0;dashed=1;dashPattern=2 3;exitX=0.467;exitY=0.5;exitDx=0;exitDy=0;exitPerimeter=0;" edge="1" parent="1" source="o3OVM2CxOp8buC_yMI5R-111" target="o3OVM2CxOp8buC_yMI5R-110">
          <mxGeometry relative="1" as="geometry">
            <Array as="points">
              <mxPoint x="1955" y="1330" />
            </Array>
            <mxPoint x="2146" y="1330" as="sourcePoint" />
            <mxPoint x="1840" y="1330" as="targetPoint" />
          </mxGeometry>
        </mxCell>
        <mxCell id="o3OVM2CxOp8buC_yMI5R-121" value="Login successful" style="verticalAlign=bottom;endArrow=block;edgeStyle=elbowEdgeStyle;elbow=vertical;curved=0;rounded=0;dashed=1;dashPattern=2 3;" edge="1" parent="1" source="o3OVM2CxOp8buC_yMI5R-110" target="o3OVM2CxOp8buC_yMI5R-109">
          <mxGeometry relative="1" as="geometry">
            <Array as="points">
              <mxPoint x="1645" y="1490" />
            </Array>
            <mxPoint x="1834.5" y="1490" as="sourcePoint" />
            <mxPoint x="1524.5" y="1490" as="targetPoint" />
          </mxGeometry>
        </mxCell>
        <mxCell id="o3OVM2CxOp8buC_yMI5R-122" value="Login Error" style="verticalAlign=bottom;endArrow=block;edgeStyle=elbowEdgeStyle;elbow=vertical;curved=0;rounded=0;dashed=1;dashPattern=2 3;" edge="1" parent="1" source="o3OVM2CxOp8buC_yMI5R-110" target="o3OVM2CxOp8buC_yMI5R-109">
          <mxGeometry relative="1" as="geometry">
            <Array as="points">
              <mxPoint x="1670" y="1350" />
            </Array>
            <mxPoint x="1825" y="1350" as="sourcePoint" />
            <mxPoint x="1550" y="1350" as="targetPoint" />
          </mxGeometry>
        </mxCell>
      </root>
    </mxGraphModel>
  </diagram>
</mxfile>
